<?xml version="1.0" encoding="UTF-8"?>
<svg width="1200" height="320" viewBox="0 0 1200 320" fill="none" xmlns="http://www.w3.org/2000/svg" role="img" aria-label="Cencurity banner">
  <defs>
    <linearGradient id="bg" x1="0" y1="0" x2="1200" y2="320" gradientUnits="userSpaceOnUse">
      <stop offset="0" stop-color="#0B1220"/>
      <stop offset="0.55" stop-color="#0B1B2C"/>
      <stop offset="1" stop-color="#08111E"/>
    </linearGradient>
    <linearGradient id="accent" x1="220" y1="50" x2="980" y2="270" gradientUnits="userSpaceOnUse">
      <stop offset="0" stop-color="#22C55E" stop-opacity="0.85"/>
      <stop offset="0.5" stop-color="#06B6D4" stop-opacity="0.65"/>
      <stop offset="1" stop-color="#A855F7" stop-opacity="0.55"/>
    </linearGradient>
    <filter id="glow" x="-20%" y="-20%" width="140%" height="140%">
      <feGaussianBlur stdDeviation="18" result="blur"/>
      <feColorMatrix in="blur" type="matrix" values="1 0 0 0 0  0 1 0 0 0  0 0 1 0 0  0 0 0 0.45 0" result="glow"/>
      <feMerge>
        <feMergeNode in="glow"/>
        <feMergeNode in="SourceGraphic"/>
      </feMerge>
    </filter>
  </defs>

  <rect width="1200" height="320" rx="22" fill="url(#bg)"/>

  <!-- Accent shape -->
  <path d="M120 245C248 110 420 54 602 72c166 16 307 92 478 63v110c-180 36-325-40-508-60-186-20-334 45-452 174Z" fill="url(#accent)" filter="url(#glow)" opacity="0.95"/>

  <!-- Logo mark -->
  <g transform="translate(92 88)">
    <circle cx="54" cy="72" r="44" fill="#22C55E" opacity="0.95"/>
    <path d="M78 46c-10-10-26-10-36 0s-10 26 0 36 26 10 36 0" stroke="#0B1220" stroke-width="10" stroke-linecap="round"/>
    <path d="M85 99c-6 20-25 35-47 35-28 0-50-22-50-50 0-22 15-41 35-47" stroke="#0B1220" stroke-width="10" stroke-linecap="round" opacity="0.9"/>
  </g>

  <!-- Title -->
  <text x="230" y="145" fill="#E5E7EB" font-family="ui-sans-serif, system-ui, -apple-system, Segoe UI, Roboto, Helvetica, Arial" font-size="56" font-weight="800" letter-spacing="-0.5">cencurity</text>
  <text x="232" y="190" fill="#93C5FD" font-family="ui-sans-serif, system-ui, -apple-system, Segoe UI, Roboto, Helvetica, Arial" font-size="18" font-weight="600" opacity="0.9">Policy-driven security proxy for LLM apps</text>
  <text x="232" y="220" fill="#9CA3AF" font-family="ui-sans-serif, system-ui, -apple-system, Segoe UI, Roboto, Helvetica, Arial" font-size="16" font-weight="500" opacity="0.85">Community deploy package • no admin UI • ports 18080 / 18082</text>

  <!-- Subtle grid -->
  <g opacity="0.08">
    <path d="M0 40H1200" stroke="#E5E7EB"/>
    <path d="M0 90H1200" stroke="#E5E7EB"/>
    <path d="M0 140H1200" stroke="#E5E7EB"/>
    <path d="M0 190H1200" stroke="#E5E7EB"/>
    <path d="M0 240H1200" stroke="#E5E7EB"/>
    <path d="M0 290H1200" stroke="#E5E7EB"/>
    <path d="M90 0V320" stroke="#E5E7EB"/>
    <path d="M210 0V320" stroke="#E5E7EB"/>
    <path d="M330 0V320" stroke="#E5E7EB"/>
    <path d="M450 0V320" stroke="#E5E7EB"/>
    <path d="M570 0V320" stroke="#E5E7EB"/>
    <path d="M690 0V320" stroke="#E5E7EB"/>
    <path d="M810 0V320" stroke="#E5E7EB"/>
    <path d="M930 0V320" stroke="#E5E7EB"/>
    <path d="M1050 0V320" stroke="#E5E7EB"/>
    <path d="M1170 0V320" stroke="#E5E7EB"/>
  </g>
</svg>
